<svg version="1.1" viewBox="0.0 0.0 500.0 500.0" fill="none" stroke="none" stroke-linecap="square" stroke-miterlimit="10" xmlns:xlink="http://www.w3.org/1999/xlink" xmlns="http://www.w3.org/2000/svg"><clipPath id="p.0"><path d="m0 0l500.0 0l0 500.0l-500.0 0l0 -500.0z" clip-rule="nonzero"/></clipPath><g clip-path="url(#p.0)"><path fill="#ffffff" d="m0 0l500.0 0l0 500.0l-500.0 0z" fill-rule="evenodd"/><path fill="#17263c" d="m0 0l500.0 0l0 500.0l-500.0 0z" fill-rule="evenodd"/><path fill="#d99066" d="m153.78215 70.43542l0 0c0 -5.055931 4.098648 -9.154575 9.154587 -9.154575l36.617203 0l0 0c2.4279327 0 4.756439 0.9644966 6.4732513 2.6813126c1.7168274 1.716816 2.6813202 4.045315 2.6813202 6.473263l0 359.10114c0 5.055908 -4.098648 9.154572 -9.154572 9.154572l-36.617203 0c-5.0559387 0 -9.154587 -4.0986633 -9.154587 -9.154572z" fill-rule="evenodd"/><path fill="#d99066" d="m291.3335 70.43542l0 0c0 -5.055931 4.098633 -9.154575 9.154572 -9.154575l36.617188 0l0 0c2.427948 0 4.7564697 0.9644966 6.4732666 2.6813126c1.7168274 1.716816 2.6813354 4.045315 2.6813354 6.473263l0 359.10114c0 5.055908 -4.0986633 9.154572 -9.154602 9.154572l-36.617188 0c-5.0559387 0 -9.154572 -4.0986633 -9.154572 -9.154572z" fill-rule="evenodd"/><path fill="#d99066" d="m384.0589 70.10455l54.92636 36.918213l-54.92636 36.91823z" fill-rule="evenodd"/><path fill="#d99066" d="m144.39163 420.4375l0 0c0 5.26297 -4.2664795 9.529449 -9.529465 9.529449l0 0l0 0c-2.527359 0 -4.9512177 -1.0039978 -6.7383423 -2.7911072c-1.787117 -1.7871399 -2.7911072 -4.210968 -2.7911072 -6.7383423l0 -54.957977c0 -5.26297 4.2664795 -9.529449 9.529449 -9.529449l0 0l0 0c5.262985 0 9.529465 4.2664795 9.529465 9.529449z" fill-rule="evenodd"/><path fill="#d99066" d="m115.94217 429.8677l-54.926353 -36.918213l54.926353 -36.918213z" fill-rule="evenodd"/><path fill="#d99066" d="m374.68918 134.50175l0 0c0 5.26297 -4.2664795 9.529449 -9.529449 9.529449l0 0l0 0c-2.5273743 0 -4.951233 -1.0039978 -6.7383423 -2.7911072c-1.7871094 -1.7871246 -2.7911072 -4.2109833 -2.7911072 -6.7383423l0 -54.957962c0 -5.2629776 4.2664795 -9.529457 9.529449 -9.529457l0 0l0 0c5.26297 0 9.529449 4.2664795 9.529449 9.529457z" fill-rule="evenodd"/><path fill="#d99066" d="m158.99059 87.30072l0 0c-1.7908173 -4.7278137 0.59069824 -10.010574 5.319275 -11.79937l34.246384 -12.955254l0 0c2.2707367 -0.8590126 4.7901154 -0.7809372 7.0038757 0.21704483c2.213745 0.99798584 3.940567 2.8341331 4.8005524 5.1045113l130.6172 344.83185c1.7908325 4.7278137 -0.59069824 10.010559 -5.319275 11.799347l-34.24637 12.955261c-4.7285767 1.7887878 -10.013611 -0.59375 -11.804443 -5.3215637z" fill-rule="evenodd"/></g></svg>